<?xml version="1.0" encoding="UTF-8"?><svg xmlns="http://www.w3.org/2000/svg" xmlns:xlink="http://www.w3.org/1999/xlink" width="419.25" zoomAndPan="magnify" viewBox="0 0 419.25 297.75" height="297.75" preserveAspectRatio="xMidYMid meet" version="1.0"><defs><clipPath id="clip-0"><path d="M 3 0.140625 L 16 0.140625 L 16 7 L 3 7 Z M 3 0.140625 " clip-rule="nonzero"/></clipPath><clipPath id="clip-1"><path d="M 38 215 L 43.976562 215 L 43.976562 230 L 38 230 Z M 38 215 " clip-rule="nonzero"/></clipPath><clipPath id="clip-2"><path d="M 410 243 L 418.5 243 L 418.5 257 L 410 257 Z M 410 243 " clip-rule="nonzero"/></clipPath><clipPath id="clip-3"><path d="M 410 87 L 418.5 87 L 418.5 95 L 410 95 Z M 410 87 " clip-rule="nonzero"/></clipPath></defs><path fill="rgb(92.939758%, 67.059326%, 81.959534%)" d="M 18.28125 92.441406 L 15.90625 96.460938 L 3.429688 89.121094 L 5.804688 85.097656 Z M 18.28125 92.441406 " fill-opacity="1" fill-rule="nonzero"/><g clip-path="url(#clip-0)"><path fill="rgb(56.469727%, 87.059021%, 93.728638%)" d="M 11.949219 -8.027344 L 15.832031 -5.425781 L 7.753906 6.574219 L 3.871094 3.96875 Z M 11.949219 -8.027344 " fill-opacity="1" fill-rule="nonzero"/></g><path fill="rgb(94.898987%, 85.099792%, 38.038635%)" d="M 37.730469 22.792969 L 34.394531 26.0625 L 24.246094 15.75 L 27.582031 12.480469 Z M 37.730469 22.792969 " fill-opacity="1" fill-rule="nonzero"/><path fill="rgb(56.469727%, 87.059021%, 93.728638%)" d="M 34.945312 66.144531 L 36.207031 70.636719 L 22.257812 74.539062 L 20.996094 70.046875 Z M 34.945312 66.144531 " fill-opacity="1" fill-rule="nonzero"/><path fill="rgb(92.939758%, 67.059326%, 81.959534%)" d="M 5.148438 36.855469 L 8.871094 34.03125 L 17.632812 45.542969 L 13.90625 48.367188 Z M 5.148438 36.855469 " fill-opacity="1" fill-rule="nonzero"/><path fill="rgb(56.469727%, 87.059021%, 93.728638%)" d="M 7.117188 118.566406 L 8.097656 123.128906 L -6.066406 126.15625 L -7.046875 121.59375 Z M 7.117188 118.566406 " fill-opacity="1" fill-rule="nonzero"/><path fill="rgb(94.898987%, 85.099792%, 38.038635%)" d="M 41 143.199219 L 41.980469 147.761719 L 27.816406 150.789062 L 26.835938 146.226562 Z M 41 143.199219 " fill-opacity="1" fill-rule="nonzero"/><path fill="rgb(56.469727%, 87.059021%, 93.728638%)" d="M -7.835938 217.265625 L -4.410156 214.089844 L 5.449219 224.679688 L 2.023438 227.855469 Z M -7.835938 217.265625 " fill-opacity="1" fill-rule="nonzero"/><path fill="rgb(94.898987%, 85.099792%, 38.038635%)" d="M 27.203125 199.472656 L 26.414062 204.074219 L 12.136719 201.632812 L 12.925781 197.03125 Z M 27.203125 199.472656 " fill-opacity="1" fill-rule="nonzero"/><path fill="rgb(56.469727%, 87.059021%, 93.728638%)" d="M 15.363281 173.726562 L 11.3125 171.390625 L 18.5625 158.875 L 22.613281 161.210938 Z M 15.363281 173.726562 " fill-opacity="1" fill-rule="nonzero"/><path fill="rgb(94.898987%, 85.099792%, 38.038635%)" d="M 31.039062 242.335938 L 29.277344 246.660156 L 15.859375 241.21875 L 17.621094 236.894531 Z M 31.039062 242.335938 " fill-opacity="1" fill-rule="nonzero"/><g clip-path="url(#clip-1)"><path fill="rgb(92.939758%, 67.059326%, 81.959534%)" d="M 43.964844 229.753906 L 39.289062 229.945312 L 38.703125 215.5 L 43.378906 215.3125 Z M 43.964844 229.753906 " fill-opacity="1" fill-rule="nonzero"/></g><path fill="rgb(94.898987%, 85.099792%, 38.038635%)" d="M 34.640625 122.277344 L 31.097656 125.324219 L 21.640625 114.375 L 25.183594 111.328125 Z M 34.640625 122.277344 " fill-opacity="1" fill-rule="nonzero"/><path fill="rgb(92.939758%, 67.059326%, 81.959534%)" d="M 24.878906 277.582031 L 21.175781 274.730469 L 30.027344 263.285156 L 33.730469 266.136719 Z M 24.878906 277.582031 " fill-opacity="1" fill-rule="nonzero"/><path fill="rgb(56.469727%, 87.059021%, 93.728638%)" d="M -0.566406 274.328125 L 4.105469 274.496094 L 3.589844 288.9375 L -1.082031 288.773438 Z M -0.566406 274.328125 " fill-opacity="1" fill-rule="nonzero"/><path fill="rgb(92.939758%, 67.059326%, 81.959534%)" d="M 400.296875 120.867188 L 402.671875 116.847656 L 415.148438 124.1875 L 412.773438 128.210938 Z M 400.296875 120.867188 " fill-opacity="1" fill-rule="nonzero"/><path fill="rgb(56.469727%, 87.059021%, 93.728638%)" d="M 406.628906 221.335938 L 402.746094 218.734375 L 410.824219 206.734375 L 414.707031 209.335938 Z M 406.628906 221.335938 " fill-opacity="1" fill-rule="nonzero"/><path fill="rgb(94.898987%, 85.099792%, 38.038635%)" d="M 380.847656 190.515625 L 384.183594 187.246094 L 394.332031 197.558594 L 390.996094 200.828125 Z M 380.847656 190.515625 " fill-opacity="1" fill-rule="nonzero"/><path fill="rgb(92.939758%, 67.059326%, 81.959534%)" d="M 402.832031 280.933594 L 402.363281 276.289062 L 416.777344 274.84375 L 417.246094 279.488281 Z M 402.832031 280.933594 " fill-opacity="1" fill-rule="nonzero"/><g clip-path="url(#clip-2)"><path fill="rgb(56.469727%, 87.059021%, 93.728638%)" d="M 410.984375 246.15625 L 414.441406 243.011719 L 424.207031 253.6875 L 420.75 256.832031 Z M 410.984375 246.15625 " fill-opacity="1" fill-rule="nonzero"/></g><path fill="rgb(56.469727%, 87.059021%, 93.728638%)" d="M 383.632812 147.164062 L 382.371094 142.671875 L 396.320312 138.769531 L 397.582031 143.261719 Z M 383.632812 147.164062 " fill-opacity="1" fill-rule="nonzero"/><path fill="rgb(92.939758%, 67.059326%, 81.959534%)" d="M 413.429688 176.453125 L 409.707031 179.273438 L 400.945312 167.765625 L 404.671875 164.941406 Z M 413.429688 176.453125 " fill-opacity="1" fill-rule="nonzero"/><path fill="rgb(56.469727%, 87.059021%, 93.728638%)" d="M 379.113281 268.375 L 375.675781 265.207031 L 385.503906 254.589844 L 388.941406 257.757812 Z M 379.113281 268.375 " fill-opacity="1" fill-rule="nonzero"/><g clip-path="url(#clip-3)"><path fill="rgb(56.469727%, 87.059021%, 93.728638%)" d="M 411.460938 94.742188 L 410.480469 90.179688 L 424.644531 87.152344 L 425.625 91.714844 Z M 411.460938 94.742188 " fill-opacity="1" fill-rule="nonzero"/></g><path fill="rgb(94.898987%, 85.099792%, 38.038635%)" d="M 377.578125 70.109375 L 376.597656 65.546875 L 390.761719 62.519531 L 391.742188 67.082031 Z M 377.578125 70.109375 " fill-opacity="1" fill-rule="nonzero"/><path fill="rgb(94.898987%, 85.099792%, 38.038635%)" d="M 391.375 13.832031 L 392.164062 9.234375 L 406.441406 11.675781 L 405.652344 16.277344 Z M 391.375 13.832031 " fill-opacity="1" fill-rule="nonzero"/><path fill="rgb(56.469727%, 87.059021%, 93.728638%)" d="M 403.214844 39.582031 L 407.265625 41.917969 L 400.015625 54.433594 L 395.96875 52.097656 Z M 403.214844 39.582031 " fill-opacity="1" fill-rule="nonzero"/><path fill="rgb(94.898987%, 85.099792%, 38.038635%)" d="M 383.9375 91.03125 L 387.480469 87.984375 L 396.9375 98.929688 L 393.394531 101.976562 Z M 383.9375 91.03125 " fill-opacity="1" fill-rule="nonzero"/></svg>